<svg xmlns="http://www.w3.org/2000/svg" viewBox="0 0 170 48" fill="none">
  <!-- Hotpoint Official Red Circular Dot & Modern Wordmark -->
  <!-- Red Flame/Dot Emblem -->
  <circle cx="16" cy="24" r="9" fill="#E31E24"/>
  <circle cx="16" cy="24" r="5" fill="#FFFFFF"/>
  <circle cx="16" cy="24" r="2.5" fill="#E31E24"/>
  <!-- Hotpoint Wordmark -->
  <g fill="#1F2937" transform="translate(34, 12)">
    <!-- H -->
    <path d="M0 24.5 L0 0 L5 0 L5 9.5 L13 9.5 L13 0 L18 0 L18 24.5 L13 24.5 L13 14.5 L5 14.5 L5 24.5 Z"/>
    <!-- o -->
    <path d="M26 16.5 C26 11.5 29.5 8 34.5 8 C39.5 8 43 11.5 43 16.5 C43 21.5 39.5 25 34.5 25 C29.5 25 26 21.5 26 16.5 Z M38.5 16.5 C38.5 13.5 37 12 34.5 12 C32 12 30.5 13.5 30.5 16.5 C30.5 19.5 32 21 34.5 21 C37 21 38.5 19.5 38.5 16.5 Z"/>
    <!-- t -->
    <path d="M49 4 L53.5 4 L53.5 8.5 L58 8.5 L58 12 L53.5 12 L53.5 19 C53.5 20.5 54.5 21 56 21 L58 21 L58 24.5 C56.5 24.8 55 24.8 53.5 24.5 C50.5 23.8 49 21.5 49 19 L49 12 L46 12 L46 8.5 L49 8.5 Z"/>
    <!-- p -->
    <path d="M62 29 L62 8.5 L66.5 8.5 L66.5 11 C67.5 9.5 69.5 8 72.5 8 C76.5 8 79.5 11.5 79.5 16.5 C79.5 21.5 76.5 25 72.5 25 C69.5 25 67.5 23.5 66.5 22 L66.5 29 Z M75 16.5 C75 13.5 73.5 12 71 12 C68.5 12 66.5 13.5 66.5 16.5 C66.5 19.5 68.5 21 71 21 C73.5 21 75 19.5 75 16.5 Z"/>
    <!-- o -->
    <path d="M83 16.5 C83 11.5 86.5 8 91.5 8 C96.5 8 100 11.5 100 16.5 C100 21.5 96.5 25 91.5 25 C86.5 25 83 21.5 83 16.5 Z M95.5 16.5 C95.5 13.5 94 12 91.5 12 C89 12 87.5 13.5 87.5 16.5 C87.5 19.5 89 21 91.5 21 C94 21 95.5 19.5 95.5 16.5 Z"/>
    <!-- i -->
    <path d="M104 8.5 L108.5 8.5 L108.5 24.5 L104 24.5 Z M104 1.5 L108.5 1.5 L108.5 6 L104 6 Z"/>
    <!-- n -->
    <path d="M113 8.5 L117.5 8.5 L117.5 11 C118.5 9.5 120.5 8 123.5 8 C127.5 8 130 10.5 130 15 L130 24.5 L125.5 24.5 L125.5 16 C125.5 13.5 124.5 12.2 122.5 12.2 C120 12.2 118 14 118 17 L118 24.5 L113 24.5 Z"/>
    <!-- t -->
    <path d="M134 4 L138.5 4 L138.5 8.5 L143 8.5 L143 12 L138.5 12 L138.5 19 C138.5 20.5 139.5 21 141 21 L143 21 L143 24.5 C141.5 24.8 140 24.8 138.5 24.5 C135.5 23.8 134 21.5 134 19 L134 12 L131 12 L131 8.5 L134 8.5 Z"/>
  </g>
</svg>